# xmcd
#
# Track frame offsets: 
#        150
#        15713
#        33445
#        48628
#        67124
#        90207
#        105801
#        117437
#        134006
#        144888
#
# Disc length: 2374 seconds
#
# Revision: 0
# Processed by: cddbd v1.5.2PL0 Copyright (c) Steve Scherf et al.
# Submitted via: ExactAudioCopy v1.0b1
#
DISCID=8109440a
DTITLE=Hoedown - Black and White (White) [FLAC]
DYEAR=2010
DGENRE=Pop-Folk
TTITLE0=Little Darling
TTITLE1=One lLast Time Again
TTITLE2=Lost Highway
TTITLE3=Get Right Church
TTITLE4=Pony
TTITLE5=Babylon's Angels
TTITLE6=Cajun Moon
TTITLE7=Cajun Girls
TTITLE8=If I Could (Going Fishing)
TTITLE9=Up On Cripple Creek
EXTD=
EXTT0=
EXTT1=
EXTT2=
EXTT3=
EXTT4=
EXTT5=
EXTT6=
EXTT7=
EXTT8=
EXTT9=
PLAYORDER=
